<mxfile host="65bd71144e">
    <diagram id="lQBfscxoMevyfBHIxW_O" name="Page-1">
        <mxGraphModel dx="813" dy="982" grid="1" gridSize="10" guides="1" tooltips="1" connect="1" arrows="1" fold="1" page="1" pageScale="1" pageWidth="850" pageHeight="1100" math="0" shadow="0">
            <root>
                <mxCell id="0"/>
                <mxCell id="1" parent="0"/>
                <mxCell id="2" value="MAIN" style="whiteSpace=wrap;html=1;" parent="1" vertex="1">
                    <mxGeometry x="320" y="30" width="120" height="60" as="geometry"/>
                </mxCell>
                <mxCell id="3" value="EXECUTIONER" style="whiteSpace=wrap;html=1;" parent="1" vertex="1">
                    <mxGeometry x="320" y="150" width="120" height="60" as="geometry"/>
                </mxCell>
                <mxCell id="4" value="" style="edgeStyle=none;orthogonalLoop=1;jettySize=auto;html=1;exitX=0.5;exitY=1;exitDx=0;exitDy=0;entryX=0.5;entryY=0;entryDx=0;entryDy=0;" parent="1" source="2" target="3" edge="1">
                    <mxGeometry width="100" relative="1" as="geometry">
                        <mxPoint x="120" y="130" as="sourcePoint"/>
                        <mxPoint x="220" y="130" as="targetPoint"/>
                        <Array as="points"/>
                    </mxGeometry>
                </mxCell>
                <mxCell id="5" value="COMANDO" style="text;html=1;align=center;verticalAlign=middle;resizable=0;points=[];autosize=1;strokeColor=none;fillColor=none;" parent="1" vertex="1">
                    <mxGeometry x="380" y="105" width="90" height="30" as="geometry"/>
                </mxCell>
                <mxCell id="6" value=", CMD_NUM" style="text;html=1;align=center;verticalAlign=middle;resizable=0;points=[];autosize=1;strokeColor=none;fillColor=none;" vertex="1" parent="1">
                    <mxGeometry x="450" y="105" width="90" height="30" as="geometry"/>
                </mxCell>
                <mxCell id="7" value="i = 1" style="rhombus;whiteSpace=wrap;html=1;" vertex="1" parent="1">
                    <mxGeometry x="170" y="280" width="80" height="80" as="geometry"/>
                </mxCell>
                <mxCell id="8" value="1 &amp;lt; i &amp;lt; CMD_NUM - 1" style="rhombus;whiteSpace=wrap;html=1;" vertex="1" parent="1">
                    <mxGeometry x="355" y="560" width="140" height="100" as="geometry"/>
                </mxCell>
                <mxCell id="9" value="i = CMD_NUM - 1" style="rhombus;whiteSpace=wrap;html=1;" vertex="1" parent="1">
                    <mxGeometry x="550" y="565" width="130" height="90" as="geometry"/>
                </mxCell>
                <mxCell id="10" value="" style="edgeStyle=none;orthogonalLoop=1;jettySize=auto;html=1;exitX=0.5;exitY=1;exitDx=0;exitDy=0;entryX=1;entryY=0;entryDx=0;entryDy=0;" edge="1" parent="1" source="3" target="7">
                    <mxGeometry width="100" relative="1" as="geometry">
                        <mxPoint x="190" y="200" as="sourcePoint"/>
                        <mxPoint x="290" y="200" as="targetPoint"/>
                        <Array as="points"/>
                    </mxGeometry>
                </mxCell>
                <mxCell id="12" value="" style="edgeStyle=none;orthogonalLoop=1;jettySize=auto;html=1;exitX=0.5;exitY=1;exitDx=0;exitDy=0;entryX=0;entryY=0;entryDx=0;entryDy=0;" edge="1" parent="1" source="3" target="36">
                    <mxGeometry width="100" relative="1" as="geometry">
                        <mxPoint x="460" y="160" as="sourcePoint"/>
                        <mxPoint x="480" y="290" as="targetPoint"/>
                        <Array as="points"/>
                    </mxGeometry>
                </mxCell>
                <mxCell id="25" style="edgeStyle=none;html=1;exitX=0.25;exitY=1;exitDx=0;exitDy=0;entryX=0.5;entryY=0;entryDx=0;entryDy=0;" edge="1" parent="1" source="23" target="16">
                    <mxGeometry relative="1" as="geometry">
                        <mxPoint x="180" y="510" as="targetPoint"/>
                    </mxGeometry>
                </mxCell>
                <mxCell id="28" style="edgeStyle=none;html=1;exitX=0.5;exitY=1;exitDx=0;exitDy=0;entryX=0.5;entryY=0;entryDx=0;entryDy=0;" edge="1" parent="1" source="16" target="27">
                    <mxGeometry relative="1" as="geometry"/>
                </mxCell>
                <mxCell id="16" value="CMD_NUM = 1" style="rhombus;whiteSpace=wrap;html=1;" vertex="1" parent="1">
                    <mxGeometry x="20" y="570" width="120" height="80" as="geometry"/>
                </mxCell>
                <mxCell id="30" style="edgeStyle=none;html=1;exitX=0.5;exitY=1;exitDx=0;exitDy=0;entryX=0.5;entryY=0;entryDx=0;entryDy=0;" edge="1" parent="1" source="21" target="29">
                    <mxGeometry relative="1" as="geometry"/>
                </mxCell>
                <mxCell id="21" value="CMD_NUM != 1" style="rhombus;whiteSpace=wrap;html=1;" vertex="1" parent="1">
                    <mxGeometry x="180" y="570" width="130" height="80" as="geometry"/>
                </mxCell>
                <mxCell id="26" style="edgeStyle=none;html=1;exitX=0.5;exitY=1;exitDx=0;exitDy=0;entryX=0.5;entryY=0;entryDx=0;entryDy=0;" edge="1" parent="1" source="23" target="21">
                    <mxGeometry relative="1" as="geometry"/>
                </mxCell>
                <mxCell id="23" value="READ&lt;br&gt;FROM STDIN" style="shape=parallelogram;perimeter=parallelogramPerimeter;whiteSpace=wrap;html=1;fixedSize=1;" vertex="1" parent="1">
                    <mxGeometry x="150" y="420" width="120" height="60" as="geometry"/>
                </mxCell>
                <mxCell id="24" value="" style="edgeStyle=none;orthogonalLoop=1;jettySize=auto;html=1;entryX=0.5;entryY=0;entryDx=0;entryDy=0;exitX=0.5;exitY=1;exitDx=0;exitDy=0;" edge="1" parent="1" source="7" target="23">
                    <mxGeometry width="100" relative="1" as="geometry">
                        <mxPoint x="210" y="360" as="sourcePoint"/>
                        <mxPoint x="210" y="420" as="targetPoint"/>
                        <Array as="points"/>
                    </mxGeometry>
                </mxCell>
                <mxCell id="27" value="WRITE&lt;br&gt;TO STDOUT" style="shape=parallelogram;perimeter=parallelogramPerimeter;whiteSpace=wrap;html=1;fixedSize=1;" vertex="1" parent="1">
                    <mxGeometry x="20" y="690" width="120" height="60" as="geometry"/>
                </mxCell>
                <mxCell id="29" value="WRITE&lt;br&gt;TO FD[1]" style="shape=parallelogram;perimeter=parallelogramPerimeter;whiteSpace=wrap;html=1;fixedSize=1;" vertex="1" parent="1">
                    <mxGeometry x="185" y="690" width="120" height="60" as="geometry"/>
                </mxCell>
                <mxCell id="32" value="READ&lt;br&gt;FROM FD[0]" style="shape=parallelogram;perimeter=parallelogramPerimeter;whiteSpace=wrap;html=1;fixedSize=1;" vertex="1" parent="1">
                    <mxGeometry x="450" y="420" width="120" height="60" as="geometry"/>
                </mxCell>
                <mxCell id="34" value="" style="edgeStyle=none;orthogonalLoop=1;jettySize=auto;html=1;exitX=0.25;exitY=1;exitDx=0;exitDy=0;entryX=0.5;entryY=0;entryDx=0;entryDy=0;" edge="1" parent="1" source="32" target="8">
                    <mxGeometry width="100" relative="1" as="geometry">
                        <mxPoint x="500" y="610" as="sourcePoint"/>
                        <mxPoint x="600" y="610" as="targetPoint"/>
                        <Array as="points"/>
                    </mxGeometry>
                </mxCell>
                <mxCell id="35" value="" style="edgeStyle=none;orthogonalLoop=1;jettySize=auto;html=1;exitX=0.75;exitY=1;exitDx=0;exitDy=0;entryX=0.5;entryY=0;entryDx=0;entryDy=0;" edge="1" parent="1" source="32" target="9">
                    <mxGeometry width="100" relative="1" as="geometry">
                        <mxPoint x="470" y="600" as="sourcePoint"/>
                        <mxPoint x="570" y="600" as="targetPoint"/>
                        <Array as="points"/>
                    </mxGeometry>
                </mxCell>
                <mxCell id="36" value="i != 1" style="rhombus;whiteSpace=wrap;html=1;" vertex="1" parent="1">
                    <mxGeometry x="470" y="280" width="80" height="80" as="geometry"/>
                </mxCell>
                <mxCell id="37" value="" style="edgeStyle=none;orthogonalLoop=1;jettySize=auto;html=1;exitX=0.5;exitY=1;exitDx=0;exitDy=0;entryX=0.5;entryY=0;entryDx=0;entryDy=0;" edge="1" parent="1" source="36" target="32">
                    <mxGeometry width="100" relative="1" as="geometry">
                        <mxPoint x="600" y="340" as="sourcePoint"/>
                        <mxPoint x="700" y="340" as="targetPoint"/>
                        <Array as="points"/>
                    </mxGeometry>
                </mxCell>
                <mxCell id="38" value="WRITE &lt;br&gt;TO FD[1]" style="shape=parallelogram;perimeter=parallelogramPerimeter;whiteSpace=wrap;html=1;fixedSize=1;" vertex="1" parent="1">
                    <mxGeometry x="355" y="690" width="120" height="60" as="geometry"/>
                </mxCell>
                <mxCell id="39" value="" style="edgeStyle=none;orthogonalLoop=1;jettySize=auto;html=1;exitX=0.5;exitY=1;exitDx=0;exitDy=0;entryX=0.5;entryY=0;entryDx=0;entryDy=0;" edge="1" parent="1" source="8" target="38">
                    <mxGeometry width="100" relative="1" as="geometry">
                        <mxPoint x="580" y="750" as="sourcePoint"/>
                        <mxPoint x="680" y="750" as="targetPoint"/>
                        <Array as="points"/>
                    </mxGeometry>
                </mxCell>
                <mxCell id="40" value="WRITE&lt;br&gt;TO STDOUT" style="shape=parallelogram;perimeter=parallelogramPerimeter;whiteSpace=wrap;html=1;fixedSize=1;" vertex="1" parent="1">
                    <mxGeometry x="555" y="690" width="120" height="60" as="geometry"/>
                </mxCell>
                <mxCell id="41" value="" style="edgeStyle=none;orthogonalLoop=1;jettySize=auto;html=1;exitX=0.5;exitY=1;exitDx=0;exitDy=0;entryX=0.5;entryY=0;entryDx=0;entryDy=0;" edge="1" parent="1" source="9" target="40">
                    <mxGeometry width="100" relative="1" as="geometry">
                        <mxPoint x="700" y="650" as="sourcePoint"/>
                        <mxPoint x="800" y="650" as="targetPoint"/>
                        <Array as="points"/>
                    </mxGeometry>
                </mxCell>
            </root>
        </mxGraphModel>
    </diagram>
</mxfile>